<svg xmlns="http://www.w3.org/2000/svg" xmlns:xlink="http://www.w3.org/1999/xlink" preserveAspectRatio="xMidYMid" width="35.969" height="28.969" viewBox="0 0 35.969 28.969">
  <defs>
    <style>
      .cls-1 {
        fill: #e9e9e9;
        fill-rule: evenodd;
      }
    </style>
  </defs>
  <path d="M8.845,28.956 C12.867,28.956 16.266,25.868 16.266,21.601 C16.266,16.998 12.867,14.247 8.845,14.247 C7.202,14.247 5.672,14.865 4.539,15.763 C4.312,15.089 4.199,14.359 4.199,13.349 C4.199,8.858 8.278,4.030 13.037,2.065 L11.961,-0.012 C3.746,3.805 0.007,10.261 0.007,17.728 C0.007,19.580 0.346,22.780 1.989,25.307 C3.406,27.496 5.445,28.956 8.845,28.956 ZM28.560,28.956 C32.640,28.956 35.982,25.868 35.982,21.601 C35.982,16.998 32.640,14.247 28.560,14.247 C26.917,14.247 25.444,14.865 24.255,15.763 C24.028,15.089 23.915,14.359 23.915,13.349 C23.915,8.858 27.994,4.030 32.753,2.065 L31.676,-0.012 C23.461,3.805 19.722,10.261 19.722,17.728 C19.722,19.580 20.062,22.780 21.705,25.307 C23.122,27.496 25.218,28.956 28.560,28.956 Z" class="cls-1"/>
</svg>
